<svg id="Contigs" xmlns="http://www.w3.org/2000/svg" xmlns:xlink="http://www.w3.org/1999/xlink" viewBox="0 0 172.5 23"><defs><style>.cls-1,.cls-9{fill:none;}.cls-2{clip-path:url(#clip-path);}.cls-3{fill:#f1f2f2;}.cls-4{fill:#963231;}.cls-5{fill:#c8d6f1;}.cls-6{fill:#393939;}.cls-7{fill:#97989c;}.cls-8{fill:#d4d5d7;}.cls-9{stroke:#231f20;stroke-miterlimit:10;}</style><clipPath id="clip-path"><path class="cls-1" d="M169.33,11c0-5.38-2.68-8.75-4.49-8.75H32c-1.76,0-3.57,8.75-5.25,8.75-2.34,0-4.51-8.75-6.67-8.75-5.46,0-7.9-.33-12-.33C6.79,1.88,3,5.65,3,11c0,5,3.75,8.42,5.11,8.42,4.07,0,6.51.33,12,.33,2.16,0,4.33-8.75,6.67-8.75,1.73,0,3.6,8.75,5.42,8.75H164.82C166.54,19.71,169.33,16.13,169.33,11Z"/></clipPath></defs><title>split_tmp</title><g class="cls-2"><rect class="cls-3" x="71.6" y="-77.19" width="29.17" height="175.62" transform="translate(96.81 -75.56) rotate(90)"/><rect class="cls-4" x="17.21" y="5.08" width="17.5" height="11.75" transform="translate(36.92 -15) rotate(90)"/><rect class="cls-5" x="3" y="2.21" width="17.08" height="17.08" transform="translate(22.29 -0.79) rotate(90)"/><rect class="cls-6" x="74.41" y="6.43" width="17.5" height="9.06" transform="translate(94.11 -72.2) rotate(90)"/><rect class="cls-6" x="95.96" y="7.25" width="17.5" height="7.42" transform="translate(115.67 -93.75) rotate(90)"/><rect class="cls-6" x="119.6" y="-0.35" width="17.5" height="22.62" transform="translate(139.31 -117.4) rotate(90)"/><rect class="cls-6" x="142.44" y="8.9" width="17.5" height="4.13" transform="translate(162.15 -140.23) rotate(90)"/><rect class="cls-6" x="150.75" y="8.71" width="17.5" height="4.5" transform="translate(170.46 -148.54) rotate(90)"/><rect class="cls-7" x="46" y="5.88" width="17.5" height="10.17" transform="translate(65.71 -43.79) rotate(90)"/><rect class="cls-7" x="64.9" y="5.98" width="17.5" height="9.96" transform="translate(84.6 -62.69) rotate(90)"/><rect class="cls-7" x="83.39" y="6.51" width="17.08" height="8.48" transform="translate(102.68 -81.18) rotate(90)"/><rect class="cls-8" x="33.67" y="3.71" width="17.5" height="14.5" transform="translate(53.38 -31.46) rotate(90)"/><rect class="cls-8" x="89.83" y="8.54" width="17.5" height="4.83" transform="translate(109.54 -87.62) rotate(90)"/><rect class="cls-8" x="103.98" y="6.65" width="17.5" height="8.62" transform="translate(123.69 -101.77) rotate(90)"/><rect class="cls-8" x="146.5" y="8.96" width="17.5" height="4" transform="translate(166.21 -144.29) rotate(90)"/><rect class="cls-8" x="156.79" y="7.17" width="17.5" height="7.58" transform="translate(176.5 -154.58) rotate(90)"/></g><path class="cls-9" d="M169.54,11c0-5.38-2.68-8.75-4.49-8.75H32.21C30.45,2.21,28.64,11,27,11c-2.34,0-4.51-8.75-6.67-8.75-5.46,0-7.9-.33-12-.33C7,1.88,3.21,5.65,3.21,11c0,5,3.75,8.42,5.11,8.42,4.07,0,6.51.33,12,.33C22.45,19.71,24.62,11,27,11c1.73,0,3.6,8.75,5.42,8.75H165C166.75,19.71,169.54,16.13,169.54,11Z"/></svg>