<svg id="Contigs" xmlns="http://www.w3.org/2000/svg" xmlns:xlink="http://www.w3.org/1999/xlink" viewBox="0 0 201.5 24"><defs><style>.cls-1,.cls-8{fill:none;}.cls-2{clip-path:url(#clip-path);}.cls-3{fill:#f1f2f2;}.cls-4{fill:#963231;}.cls-5{fill:#393939;}.cls-6{fill:#97989c;}.cls-7{fill:#d4d5d7;}.cls-8{stroke:#231f20;stroke-miterlimit:10;}</style><clipPath id="clip-path"><path class="cls-1" d="M198.79,11.71C198.79,6.33,196.12,3,194,3H65.46c-1.68,0-3.1,8.75-4.75,8.75S57.05,3,55.37,3H7.29c-1.57,0-5.5,3.44-5.5,8.75,0,5,3.89,8.75,5.5,8.75H55.54c1.68,0,3.46-8.75,5.17-8.75s3.18,8.75,4.83,8.75H193.95C196,20.46,198.79,16.88,198.79,11.71Z"/></clipPath></defs><title>split_tmp</title><g class="cls-2"><rect class="cls-3" x="84.08" y="-94.42" width="29.33" height="212.08" transform="translate(110.38 -87.12) rotate(90)"/><rect class="cls-4" x="51.71" y="6.62" width="17.5" height="10.17" transform="translate(72.17 -48.75) rotate(90)"/><rect class="cls-5" x="76.62" y="6.79" width="17.5" height="9.83" transform="translate(97.08 -73.67) rotate(90)"/><rect class="cls-5" x="92.57" y="6.99" width="17.5" height="9.44" transform="translate(113.03 -89.61) rotate(90)"/><rect class="cls-5" x="116.54" y="7.21" width="17.5" height="9" transform="translate(137 -113.58) rotate(90)"/><rect class="cls-5" x="151.17" y="6.33" width="17.5" height="10.75" transform="translate(171.63 -148.21) rotate(90)"/><rect class="cls-6" x="7.17" y="7.13" width="17.5" height="9.17" transform="translate(27.63 -4.21) rotate(90)"/><rect class="cls-6" x="26.54" y="2.96" width="17.37" height="17.38" transform="translate(46.88 -23.58) rotate(90)"/><rect class="cls-6" x="131.15" y="1.6" width="17.37" height="20.08" transform="translate(151.48 -128.19) rotate(90)"/><rect class="cls-6" x="163.68" y="7.68" width="17.5" height="8.05" transform="translate(184.14 -160.72) rotate(90)"/><rect class="cls-6" x="180.37" y="9.04" width="17.5" height="5.33" transform="translate(200.83 -177.42) rotate(90)"/><rect class="cls-7" x="170.96" y="8.46" width="17.5" height="6.5" transform="translate(191.42 -168) rotate(90)"/><rect class="cls-7" x="101.6" y="7.4" width="17.37" height="8.5" transform="translate(121.94 -98.64) rotate(90)"/><rect class="cls-7" x="84.7" y="8.55" width="17.5" height="6.31" transform="translate(105.16 -81.74) rotate(90)"/><rect class="cls-7" x="143.17" y="9.67" width="17.5" height="4.08" transform="translate(163.63 -140.21) rotate(90)"/><rect class="cls-7" x="158.1" y="10.15" width="17.5" height="3.11" transform="translate(178.56 -155.14) rotate(90)"/><rect class="cls-7" x="64.21" y="4.21" width="17.5" height="15" transform="translate(84.67 -61.25) rotate(90)"/><rect class="cls-7" x="40.92" y="9.08" width="17.5" height="5.25" transform="translate(61.38 -37.96) rotate(90)"/><rect class="cls-7" x="-2.13" y="6.88" width="17.37" height="9.54" transform="translate(18.21 5.08) rotate(90)"/></g><path class="cls-8" d="M199,11.71C199,6.33,196.33,3,194.18,3H65.67c-1.68,0-3.1,8.75-4.75,8.75S57.26,3,55.58,3H7.5C5.93,3,2,6.4,2,11.71c0,5,3.89,8.75,5.5,8.75H55.75c1.68,0,3.46-8.75,5.17-8.75s3.18,8.75,4.83,8.75H194.16C196.19,20.46,199,16.88,199,11.71Z"/></svg>