<svg id="Contigs" xmlns="http://www.w3.org/2000/svg" xmlns:xlink="http://www.w3.org/1999/xlink" viewBox="0 0 201.5 23.67"><defs><style>.cls-1,.cls-8{fill:none;}.cls-2{clip-path:url(#clip-path);}.cls-3{fill:#f1f2f2;}.cls-4{fill:#963231;}.cls-5{fill:#393939;}.cls-6{fill:#97989c;}.cls-7{fill:#d4d5d7;}.cls-8{stroke:#231f20;stroke-miterlimit:10;}</style><clipPath id="clip-path"><path class="cls-1" d="M198.9,12.13c0-5.37-2.34-8.75-4.49-8.75H87.31c-2.2,0-3.65,8.75-5.83,8.75-1.17,0-3.09-8.75-4.25-8.75-28.76,0-53,.08-69.33.08-1.57,0-6,3.35-6,8.67,0,5,4.39,8.83,6,8.83,16.31,0,40.47-.08,69.17-.08,1.22,0,3.19-8.75,4.42-8.75,2.24,0,3.74,8.75,6,8.75H194.38C196.42,20.88,198.9,17.29,198.9,12.13Z"/></clipPath></defs><title>split_tmp</title><g class="cls-2"><rect class="cls-3" x="84.11" y="-94.91" width="30" height="211.56" transform="translate(109.99 -88.24) rotate(90)"/><rect class="cls-4" x="73.6" y="7" width="17.5" height="10.25" transform="translate(94.48 -70.23) rotate(90)"/><rect class="cls-5" x="144.77" y="2.25" width="17.5" height="19.75" transform="translate(165.65 -141.4) rotate(90)"/><rect class="cls-5" x="117.27" y="-0.5" width="18.75" height="24" transform="translate(138.14 -115.14) rotate(90)"/><rect class="cls-5" x="52.1" y="6.75" width="17.5" height="10.75" transform="translate(72.98 -48.73) rotate(90)"/><rect class="cls-5" x="28.93" y="8.41" width="17.5" height="7.44" transform="translate(49.8 -25.55) rotate(90)"/><rect class="cls-6" x="1.02" y="4.25" width="17.5" height="15.75" transform="translate(21.9 2.35) rotate(90)"/><rect class="cls-6" x="36.44" y="8.33" width="17.5" height="7.58" transform="translate(57.31 -33.06) rotate(90)"/><rect class="cls-6" x="101.64" y="7.88" width="17.5" height="8.5" transform="translate(122.52 -98.27) rotate(90)"/><rect class="cls-6" x="185.31" y="7.29" width="17.5" height="9.67" transform="translate(206.19 -181.94) rotate(90)"/><rect class="cls-7" x="13.4" y="7.63" width="17.5" height="9" transform="translate(34.27 -10.02) rotate(90)"/><rect class="cls-7" x="43.48" y="8.88" width="17.5" height="6.5" transform="translate(64.35 -40.1) rotate(90)"/><rect class="cls-7" x="62.9" y="6.71" width="17.5" height="10.83" transform="translate(83.77 -59.52) rotate(90)"/><rect class="cls-7" x="88.06" y="2.79" width="17.5" height="18.67" transform="translate(108.94 -84.69) rotate(90)"/><rect class="cls-7" x="159.22" y="7.55" width="17.5" height="9.14" transform="translate(180.09 -155.84) rotate(90)"/><rect class="cls-7" x="171.23" y="8.71" width="17.5" height="6.83" transform="translate(192.1 -167.85) rotate(90)"/></g><path class="cls-8" d="M199.1,12.13c0-5.37-2.34-8.75-4.49-8.75H87.52c-2.2,0-3.65,8.75-5.83,8.75-1.17,0-3.09-8.75-4.25-8.75-28.76,0-53,.08-69.33.08-1.57,0-6,3.35-6,8.67,0,5,4.39,8.83,6,8.83,16.31,0,40.47-.08,69.17-.08,1.22,0,3.19-8.75,4.42-8.75,2.24,0,3.74,8.75,6,8.75H194.59C196.63,20.88,199.1,17.29,199.1,12.13Z"/></svg>