<svg id="Contigs" xmlns="http://www.w3.org/2000/svg" xmlns:xlink="http://www.w3.org/1999/xlink" viewBox="0 0 133.83 23.67"><defs><style>.cls-1,.cls-9{fill:none;}.cls-2{clip-path:url(#clip-path);}.cls-3{fill:#f1f2f2;}.cls-4{fill:#963231;}.cls-5{fill:#393939;}.cls-6{fill:#97989c;}.cls-7{fill:#c8d6f1;}.cls-8{fill:#d4d5d7;}.cls-9{stroke:#231f20;stroke-miterlimit:10;}</style><clipPath id="clip-path"><path class="cls-1" d="M130.77,11.13c0-5.37-3.31-8.75-4.71-8.75H61.56c-1.63,0-3.21,8.75-4.83,8.75-2.26,0-4.56-8.75-6.79-8.75H7c-1,0-5.25,3.44-5.25,8.75,0,5,4.19,8.75,5.25,8.75H49.85c2.22,0,4.63-8.75,6.87-8.75,1.79,0,3.42,8.75,5.21,8.75H126C127.37,19.88,130.77,16.29,130.77,11.13Z"/></clipPath></defs><title>split_tmp</title><g class="cls-2"><rect class="cls-3" x="49.69" y="-57.87" width="32.67" height="138.83" transform="translate(77.56 -54.48) rotate(90)"/><rect class="cls-4" x="47.19" y="5.12" width="17.5" height="12" transform="translate(67.06 -44.81) rotate(90)"/><rect class="cls-5" x="81.31" y="5" width="17.5" height="12.25" transform="translate(101.19 -78.94) rotate(90)"/><rect class="cls-6" x="17.65" y="-4.17" width="17.5" height="30.58" transform="translate(37.52 -15.27) rotate(90)"/><rect class="cls-7" x="56.06" y="8.25" width="17.5" height="5.75" transform="translate(75.94 -53.69) rotate(90)"/><rect class="cls-6" x="70.52" y="6.46" width="17.5" height="9.33" transform="translate(90.4 -68.15) rotate(90)"/><rect class="cls-6" x="105.76" y="4.51" width="17.5" height="13.23" transform="translate(125.64 -103.39) rotate(90)"/><rect class="cls-8" x="-2.31" y="6.46" width="17.5" height="9.33" transform="translate(17.56 4.69) rotate(90)"/><rect class="cls-8" x="117.2" y="6.3" width="17.5" height="9.65" transform="translate(137.07 -114.82) rotate(90)"/></g><path class="cls-9" d="M131,11.13c0-5.37-3.31-8.75-4.71-8.75H61.77c-1.63,0-3.21,8.75-4.83,8.75-2.26,0-4.56-8.75-6.79-8.75H7.23C6.2,2.38,2,5.81,2,11.13c0,5,4.19,8.75,5.25,8.75H50.06c2.22,0,4.63-8.75,6.87-8.75,1.79,0,3.42,8.75,5.21,8.75h64.1C127.58,19.88,131,16.29,131,11.13Z"/></svg>