<svg id="Contigs" xmlns="http://www.w3.org/2000/svg" xmlns:xlink="http://www.w3.org/1999/xlink" viewBox="0 0 120.83 24.67"><defs><style>.cls-1,.cls-7{fill:none;}.cls-2{clip-path:url(#clip-path);}.cls-3{fill:#f1f2f2;}.cls-4{fill:#963231;}.cls-5{fill:#97989c;}.cls-6{fill:#d4d5d7;}.cls-7{stroke:#231f20;stroke-miterlimit:10;}</style><clipPath id="clip-path"><path class="cls-1" d="M117.79,12.21c0-5.38-2.48-8.75-3.74-8.75H38.83c-.92,0-1.84,8.75-2.75,8.75s-1.84-8.75-2.75-8.75h-25c-.91,0-5.5,3.44-5.5,8.75,0,5,4.56,8.75,5.5,8.75h25c1.07,0,1.66-8.75,2.75-8.75.83,0,2.16,8.75,3,8.75h75C115.23,21,117.79,17.38,117.79,12.21Z"/></clipPath></defs><title>split_tmp</title><g class="cls-2"><rect class="cls-3" x="44.58" y="-52.09" width="28.67" height="127.09" transform="translate(70.37 -47.45) rotate(90)"/><rect class="cls-4" x="27.15" y="9.65" width="18" height="5.62" transform="translate(48.6 -23.69) rotate(90)"/><rect class="cls-5" x="40.92" y="7.17" width="17.5" height="10.08" transform="translate(61.88 -37.46) rotate(90)"/><rect class="cls-5" x="8.29" y="3.46" width="18" height="18" transform="translate(29.75 -4.83) rotate(90)"/><rect class="cls-5" x="70.62" y="5.13" width="18" height="14.67" transform="translate(92.08 -67.17) rotate(90)"/><rect class="cls-5" x="90.08" y="9.33" width="17.5" height="5.75" transform="translate(111.04 -86.62) rotate(90)"/><rect class="cls-6" x="48.5" y="9.67" width="18" height="5.58" transform="translate(69.96 -45.04) rotate(90)"/><rect class="cls-6" x="58.96" y="8.13" width="18" height="8.67" transform="translate(80.42 -55.5) rotate(90)"/><rect class="cls-6" x="-3.21" y="9.46" width="17.5" height="5.5" transform="translate(17.75 6.67) rotate(90)"/><rect class="cls-6" x="82.71" y="7.71" width="17.5" height="9" transform="translate(103.67 -79.25) rotate(90)"/><rect class="cls-6" x="100.04" y="10.21" width="17.5" height="4" transform="translate(121 -96.58) rotate(90)"/></g><path class="cls-7" d="M118,12.21c0-5.38-2.48-8.75-3.74-8.75H39c-.92,0-1.84,8.75-2.75,8.75s-1.84-8.75-2.75-8.75H8.5C7.59,3.46,3,6.9,3,12.21,3,17.21,7.56,21,8.5,21h25c1.07,0,1.66-8.75,2.75-8.75.83,0,2.16,8.75,3,8.75h75C115.44,21,118,17.38,118,12.21Z"/></svg>