<svg id="Contigs" xmlns="http://www.w3.org/2000/svg" xmlns:xlink="http://www.w3.org/1999/xlink" viewBox="0 0 160.5 25.33"><defs><style>.cls-1,.cls-9{fill:none;}.cls-2{clip-path:url(#clip-path);}.cls-3{fill:#f1f2f2;}.cls-4{fill:#963231;}.cls-5{fill:#c8d6f1;}.cls-6{fill:#393939;}.cls-7{fill:#97989c;}.cls-8{fill:#d4d5d7;}.cls-9{stroke:#231f20;stroke-miterlimit:10;}</style><clipPath id="clip-path"><path class="cls-1" d="M157.5,12.29c0-5.38-3.13-8.75-4.81-8.75H31.6c-2.25,0-4.26,8.75-6.38,8.75-1.69,0-3.53-8.75-5.12-8.75-5.5,0-7.68-.33-11.73-.33C7.15,3.21,3.17,7,3.17,12.29c0,5,3.95,8.42,5.21,8.42,4,0,6.19.33,11.67.33,1.58,0,3.51-8.75,5.19-8.75,2.16,0,4.08,8.75,6.38,8.75H152.67C154.26,21,157.5,17.46,157.5,12.29Z"/></clipPath></defs><title>split_tmp</title><g class="cls-2"><rect class="cls-3" x="67.12" y="-70.67" width="25.33" height="164.75" transform="translate(91.5 -68.08) rotate(90)"/><rect class="cls-4" x="17.1" y="6.54" width="17.5" height="11.5" transform="translate(38.15 -13.56) rotate(90)"/><rect class="cls-5" x="2.6" y="3.54" width="17.5" height="17.5" transform="translate(23.65 0.94) rotate(90)"/><rect class="cls-6" x="115.67" y="5.38" width="17.5" height="13.83" transform="translate(136.71 -112.12) rotate(90)"/><rect class="cls-6" x="56.19" y="4.19" width="17.5" height="16.21" transform="translate(77.23 -52.65) rotate(90)"/><rect class="cls-6" x="34.17" y="7.21" width="17.5" height="10.17" transform="translate(55.21 -30.62) rotate(90)"/><rect class="cls-7" x="43.67" y="7.88" width="17.5" height="8.83" transform="translate(64.71 -40.12) rotate(90)"/><rect class="cls-7" x="87.37" y="0.5" width="17.5" height="23.58" transform="translate(108.42 -83.83) rotate(90)"/><rect class="cls-7" x="135.79" y="9.17" width="17.5" height="6.25" transform="translate(156.83 -132.25) rotate(90)"/><rect class="cls-8" x="144.25" y="6.96" width="17.5" height="10.67" transform="translate(165.29 -140.71) rotate(90)"/><rect class="cls-8" x="127.62" y="7.25" width="17.5" height="10.08" transform="translate(148.67 -124.08) rotate(90)"/><rect class="cls-8" x="25.83" y="9.04" width="17.5" height="6.5" transform="translate(46.88 -22.29) rotate(90)"/></g><path class="cls-9" d="M157.71,12.29c0-5.38-3.13-8.75-4.81-8.75H31.81c-2.25,0-4.26,8.75-6.38,8.75-1.69,0-3.53-8.75-5.12-8.75-5.5,0-7.68-.33-11.73-.33C7.36,3.21,3.37,7,3.37,12.29c0,5,3.95,8.42,5.21,8.42,4,0,6.19.33,11.67.33,1.58,0,3.51-8.75,5.19-8.75,2.16,0,4.08,8.75,6.38,8.75H152.88C154.47,21,157.71,17.46,157.71,12.29Z"/></svg>