<svg id="Contigs" xmlns="http://www.w3.org/2000/svg" xmlns:xlink="http://www.w3.org/1999/xlink" viewBox="0 0 118.04 23.67"><defs><style>.cls-1,.cls-8{fill:none;}.cls-2{clip-path:url(#clip-path);}.cls-3{fill:#f1f2f2;}.cls-4{fill:#963231;}.cls-5{fill:#393939;}.cls-6{fill:#97989c;}.cls-7{fill:#d4d5d7;}.cls-8{stroke:#231f20;stroke-miterlimit:10;}</style><clipPath id="clip-path"><path class="cls-1" d="M115,11.79C115,6.42,112.2,3,111,3H30.9c-1.14,0-2.2,8.75-3.31,8.75S25.34,3,24.27,3H7c-.89,0-4.33,3.44-4.33,8.75,0,5,3.41,8.75,4.33,8.75H24.27c1.11,0,2.17-8.75,3.31-8.75s2.3,8.75,3.44,8.75H111C112.13,20.54,115,17,115,11.79Z"/></clipPath></defs><title>split_tmp</title><g class="cls-2"><rect class="cls-3" x="44.27" y="-49.5" width="28" height="122.75" transform="translate(70.15 -46.4) rotate(90)"/><rect class="cls-4" x="18.9" y="8.42" width="17.5" height="6.75" transform="translate(39.44 -15.85) rotate(90)"/><rect class="cls-5" x="34.65" y="6.21" width="17.5" height="11.17" transform="translate(55.19 -31.6) rotate(90)"/><rect class="cls-5" x="86.65" y="8.29" width="17.5" height="7" transform="translate(107.19 -83.6) rotate(90)"/><rect class="cls-6" x="4.52" y="7.17" width="17.5" height="9.25" transform="translate(25.06 -1.48) rotate(90)"/><rect class="cls-6" x="52.06" y="7.63" width="17.5" height="8.33" transform="translate(72.6 -49.02) rotate(90)"/><rect class="cls-6" x="71.1" y="3.67" width="16.83" height="15.58" transform="translate(90.98 -68.06) rotate(90)"/><rect class="cls-7" x="-3.1" y="8.79" width="17.5" height="6" transform="translate(17.44 6.15) rotate(90)"/><rect class="cls-7" x="12.33" y="8.6" width="17.5" height="6.37" transform="translate(32.88 -9.29) rotate(90)"/><rect class="cls-7" x="94.69" y="7.25" width="17.5" height="9.08" transform="translate(115.23 -91.65) rotate(90)"/></g><path class="cls-8" d="M115.19,11.79c0-5.37-2.77-8.75-4-8.75H31.1c-1.14,0-2.2,8.75-3.31,8.75S25.55,3,24.48,3H7.19c-.89,0-4.33,3.44-4.33,8.75,0,5,3.41,8.75,4.33,8.75H24.48c1.11,0,2.17-8.75,3.31-8.75s2.3,8.75,3.44,8.75h79.95C112.33,20.54,115.19,17,115.19,11.79Z"/></svg>