<svg id="Contigs" xmlns="http://www.w3.org/2000/svg" xmlns:xlink="http://www.w3.org/1999/xlink" viewBox="0 0 199.4 24"><defs><style>.cls-1,.cls-8{fill:none;}.cls-2{clip-path:url(#clip-path);}.cls-3{fill:#f1f2f2;}.cls-4{fill:#963231;}.cls-5{fill:#393939;}.cls-6{fill:#97989c;}.cls-7{fill:#d4d5d7;}.cls-8{stroke:#231f20;stroke-miterlimit:10;}</style><clipPath id="clip-path"><path class="cls-1" d="M196.23,11.83c0-5.38-2.38-8.83-4.49-8.83-14.26,0-80.57.08-133.59.08-1.23,0-2.45,8.75-3.67,8.75-1.68,0-3.35-8.75-5-8.75H8.9c-1.53,0-5.67,3.44-5.67,8.75,0,5,4.09,8.75,5.67,8.75H49.48c1.68,0,3.29-8.75,5-8.75,1.21,0,2.52,8.75,3.75,8.75,53,0,119.13-.08,133.49-.08C193.71,20.5,196.23,17,196.23,11.83Z"/></clipPath></defs><title>split_tmp</title><g class="cls-2"><rect class="cls-3" x="85.94" y="-91.21" width="26.67" height="205.92" transform="translate(111.02 -87.52) rotate(90)"/><rect class="cls-4" x="45.1" y="7.46" width="17.5" height="8.75" transform="translate(65.69 -42.02) rotate(90)"/><rect class="cls-5" x="24.81" y="4" width="17.5" height="15.67" transform="translate(45.4 -21.73) rotate(90)"/><rect class="cls-5" x="55.1" y="6.21" width="17.5" height="11.25" transform="translate(75.69 -52.02) rotate(90)"/><rect class="cls-5" x="114.6" y="6.71" width="17.5" height="10.25" transform="translate(135.19 -111.52) rotate(90)"/><rect class="cls-5" x="124.69" y="9.29" width="17.5" height="5.08" transform="translate(145.27 -121.6) rotate(90)"/><rect class="cls-6" x="13.08" y="7.94" width="17.5" height="7.79" transform="translate(33.67 -10) rotate(90)"/><rect class="cls-6" x="36.69" y="7.79" width="17.5" height="8.08" transform="translate(57.27 -33.6) rotate(90)"/><rect class="cls-6" x="83.52" y="4.37" width="17.5" height="14.92" transform="translate(104.1 -80.44) rotate(90)"/><rect class="cls-6" x="99.98" y="8.59" width="17.5" height="6.5" transform="translate(120.56 -96.89) rotate(90)"/><rect class="cls-6" x="141.96" y="3.08" width="17.5" height="17.5" transform="translate(162.54 -138.88) rotate(90)"/><rect class="cls-6" x="163.1" y="7.46" width="17.5" height="8.75" transform="translate(183.69 -160.02) rotate(90)"/><rect class="cls-6" x="181.58" y="5.94" width="17.5" height="11.79" transform="translate(202.17 -178.5) rotate(90)"/><rect class="cls-7" x="-0.81" y="6.88" width="17.5" height="9.92" transform="translate(19.77 3.9) rotate(90)"/><rect class="cls-7" x="63.1" y="8.96" width="18.5" height="6.75" transform="translate(84.69 -60.02) rotate(90)"/><rect class="cls-7" x="73.5" y="9.27" width="17.5" height="5.12" transform="translate(94.08 -70.42) rotate(90)"/><rect class="cls-7" x="93.85" y="8.96" width="17.5" height="5.75" transform="translate(114.44 -90.77) rotate(90)"/><rect class="cls-7" x="130.22" y="8.84" width="17.5" height="5.98" transform="translate(150.8 -127.14) rotate(90)"/><rect class="cls-7" x="121.15" y="10.42" width="17.5" height="2.83" transform="translate(141.73 -118.06) rotate(90)"/><rect class="cls-7" x="154.72" y="7.82" width="17.5" height="8.02" transform="translate(175.3 -151.64) rotate(90)"/></g><path class="cls-8" d="M196.44,11.83c0-5.38-2.38-8.83-4.49-8.83-14.26,0-80.57.08-133.59.08-1.23,0-2.45,8.75-3.67,8.75-1.68,0-3.35-8.75-5-8.75H9.1c-1.53,0-5.67,3.44-5.67,8.75,0,5,4.09,8.75,5.67,8.75H49.69c1.68,0,3.29-8.75,5-8.75,1.21,0,2.52,8.75,3.75,8.75,53,0,119.13-.08,133.49-.08C193.92,20.5,196.44,17,196.44,11.83Z"/></svg>