<svg id="Contigs" xmlns="http://www.w3.org/2000/svg" xmlns:xlink="http://www.w3.org/1999/xlink" viewBox="0 0 99.83 25.67"><defs><style>.cls-1,.cls-7{fill:none;}.cls-2{clip-path:url(#clip-path);}.cls-3{fill:#f1f2f2;}.cls-4{fill:#963231;}.cls-5{fill:#c8d6f1;}.cls-6{fill:#d4d5d7;}.cls-7{stroke:#231f20;stroke-miterlimit:10;}</style><clipPath id="clip-path"><path class="cls-1" d="M96.63,12.79C96.63,7.42,94,4,93,4H49.79c-1.61,0-3.14,8.75-4.75,8.75C43.68,12.79,42.23,4,40.87,4H7.54C6.8,4,3,7.48,3,12.79c0,5,3.82,8.75,4.58,8.75H40.46c1.55,0,3-8.75,4.58-8.75s3.2,8.75,4.75,8.75H93C94,21.54,96.63,18,96.63,12.79Z"/></clipPath></defs><title>split_tmp</title><g class="cls-2"><rect class="cls-3" x="34.29" y="-41.79" width="31.33" height="108" transform="translate(62.17 -37.75) rotate(90)"/><rect class="cls-4" x="36.33" y="8.58" width="17.5" height="8.42" transform="translate(57.87 -32.29) rotate(90)"/><rect class="cls-5" x="26.96" y="7.71" width="17.5" height="10.17" transform="translate(48.5 -22.92) rotate(90)"/><rect class="cls-5" x="44.62" y="8.71" width="17.5" height="8.17" transform="translate(66.17 -40.58) rotate(90)"/><rect class="cls-6" x="11.83" y="5.83" width="17.5" height="13.92" transform="translate(33.38 -7.79) rotate(90)"/><rect class="cls-6" x="63.62" y="2.88" width="17.5" height="19.83" transform="translate(85.17 -59.58) rotate(90)"/><rect class="cls-6" x="83.05" y="7.97" width="17.5" height="9.65" transform="translate(104.59 -79.01) rotate(90)"/></g><path class="cls-7" d="M96.83,12.79c0-5.38-2.6-8.75-3.62-8.75H50c-1.61,0-3.14,8.75-4.75,8.75C43.89,12.79,42.44,4,41.08,4H7.75C7,4,3.17,7.48,3.17,12.79c0,5,3.82,8.75,4.58,8.75H40.67c1.55,0,3-8.75,4.58-8.75s3.2,8.75,4.75,8.75H93.2C94.16,21.54,96.83,18,96.83,12.79Z"/></svg>