<svg id="Contigs" xmlns="http://www.w3.org/2000/svg" xmlns:xlink="http://www.w3.org/1999/xlink" viewBox="0 0 152.17 24.33"><defs><style>.cls-1,.cls-8{fill:none;}.cls-2{clip-path:url(#clip-path);}.cls-3{fill:#f1f2f2;}.cls-4{fill:#963231;}.cls-5{fill:#c8d6f1;}.cls-6{fill:#97989c;}.cls-7{fill:#d4d5d7;}.cls-8{stroke:#231f20;stroke-miterlimit:10;}</style><clipPath id="clip-path"><path class="cls-1" d="M149,11.79C149,6.42,145.78,3,144.19,3H31.67c-1.57,0-3.05,8.75-4.56,8.75C25.2,11.79,23.28,3,21.48,3H7.5C6.34,3,2.67,6.48,2.67,11.79c0,5,3.64,8.75,4.83,8.75H21.6c1.8,0,3.59-8.75,5.5-8.75,1.47,0,3,8.75,4.56,8.75h112.5C145.68,20.54,149,17,149,11.79Z"/></clipPath></defs><title>split_tmp</title><g class="cls-2"><rect class="cls-3" x="61.29" y="-65.83" width="30" height="154.75" transform="translate(87.83 -64.75) rotate(90)"/><rect class="cls-4" x="17.82" y="6.7" width="17.5" height="10.19" transform="translate(38.36 -14.78) rotate(90)"/><rect class="cls-5" x="3.32" y="2.39" width="17.5" height="18.81" transform="translate(23.86 -0.28) rotate(90)"/><rect class="cls-6" x="44.56" y="6.81" width="17.5" height="9.96" transform="translate(65.1 -41.52) rotate(90)"/><rect class="cls-6" x="65.96" y="2.13" width="17.5" height="19.33" transform="translate(86.5 -62.92) rotate(90)"/><rect class="cls-6" x="108.13" y="9.33" width="17.5" height="4.92" transform="translate(128.67 -105.08) rotate(90)"/><rect class="cls-6" x="117.38" y="8.5" width="17.5" height="6.58" transform="translate(137.92 -114.33) rotate(90)"/><rect class="cls-6" x="130.6" y="8.48" width="17.5" height="6.63" transform="translate(151.15 -127.56) rotate(90)"/><rect class="cls-7" x="31.67" y="3.04" width="16.83" height="16.83" transform="translate(51.54 -28.62) rotate(90)"/><rect class="cls-7" x="53.25" y="8.08" width="16.83" height="6.75" transform="translate(73.13 -50.21) rotate(90)"/><rect class="cls-7" x="80.19" y="7.23" width="16.83" height="8.46" transform="translate(100.06 -77.15) rotate(90)"/><rect class="cls-7" x="97.25" y="3.04" width="17.17" height="17.17" transform="translate(117.46 -94.21) rotate(90)"/><rect class="cls-7" x="112.33" y="10.04" width="17.5" height="3.5" transform="translate(132.88 -109.29) rotate(90)"/></g><path class="cls-8" d="M149.21,11.79C149.21,6.42,146,3,144.39,3H31.87c-1.57,0-3.05,8.75-4.56,8.75C25.4,11.79,23.48,3,21.69,3h-14C6.54,3,2.87,6.48,2.87,11.79c0,5,3.64,8.75,4.83,8.75h14.1c1.8,0,3.59-8.75,5.5-8.75,1.47,0,3,8.75,4.56,8.75h112.5C145.89,20.54,149.21,17,149.21,11.79Z"/></svg>