<svg id="Contigs" xmlns="http://www.w3.org/2000/svg" xmlns:xlink="http://www.w3.org/1999/xlink" viewBox="0 0 363.5 24"><defs><style>.cls-1,.cls-9{fill:none;}.cls-2{clip-path:url(#clip-path);}.cls-3{fill:#f1f2f2;}.cls-4{fill:#963231;}.cls-5{fill:#c8d6f1;}.cls-6{fill:#393939;}.cls-7{fill:#97989c;}.cls-8{fill:#d4d5d7;}.cls-9{stroke:#231f20;stroke-miterlimit:10;}</style><clipPath id="clip-path"><path class="cls-1" d="M360.75,11.79c0-5.37-2.67-8.75-6.58-8.75H189.08c-2.27,0-4.64,8.75-6.92,8.75S177.92,3,175.75,3H7.56C4.71,3,1.75,6.48,1.75,11.79c0,5,2.87,8.75,5.81,8.75H175.75c2.22,0,4.2-8.75,6.42-8.75s4.75,8.75,7,8.75h165C357.83,20.54,360.75,17,360.75,11.79Z"/></clipPath></defs><title>split_tmp</title><g class="cls-2"><rect class="cls-3" x="166.16" y="-169.05" width="26.5" height="363.68" transform="translate(192.2 -166.62) rotate(90)"/><rect class="cls-4" x="173.71" y="5.08" width="17.5" height="13.42" transform="translate(194.25 -170.67) rotate(90)"/><rect class="cls-5" x="190.35" y="1.77" width="17.5" height="20.04" transform="translate(210.9 -187.31) rotate(90)"/><rect class="cls-6" x="104.42" y="1.04" width="17.5" height="21.5" transform="translate(124.96 -101.37) rotate(90)"/><rect class="cls-6" x="144.38" y="7.67" width="17.5" height="8.25" transform="translate(164.92 -141.33) rotate(90)"/><rect class="cls-6" x="269.76" y="2.19" width="17.5" height="19.2" transform="translate(290.31 -266.72) rotate(90)"/><rect class="cls-6" x="308.08" y="4.38" width="17.5" height="14.83" transform="translate(328.63 -305.04) rotate(90)"/><rect class="cls-7" x="13.5" y="8.63" width="17.5" height="6.33" transform="translate(34.04 -10.46) rotate(90)"/><rect class="cls-7" x="63.58" y="7.71" width="17.5" height="8.17" transform="translate(84.13 -60.54) rotate(90)"/><rect class="cls-7" x="84" y="2.13" width="17.5" height="19.33" transform="translate(104.54 -80.96) rotate(90)"/><rect class="cls-7" x="130.42" y="1.96" width="17.5" height="19.67" transform="translate(150.96 -127.37) rotate(90)"/><rect class="cls-7" x="160.37" y="5.17" width="17.5" height="13.25" transform="translate(180.92 -157.33) rotate(90)"/><rect class="cls-7" x="214.79" y="3.25" width="17.5" height="17.08" transform="translate(235.33 -211.75) rotate(90)"/><rect class="cls-7" x="245.5" y="4.13" width="17.5" height="15.33" transform="translate(266.04 -242.46) rotate(90)"/><rect class="cls-7" x="333.92" y="3.04" width="17.5" height="17.5" transform="translate(354.46 -330.87) rotate(90)"/><rect class="cls-8" x="-0.5" y="5.29" width="17.5" height="13" transform="translate(20.04 3.54) rotate(90)"/><rect class="cls-8" x="32.37" y="1.67" width="17.5" height="20.25" transform="translate(52.92 -29.33) rotate(90)"/><rect class="cls-8" x="54.62" y="6.92" width="17.5" height="9.75" transform="translate(75.17 -51.58) rotate(90)"/><rect class="cls-8" x="228.5" y="6.63" width="17.5" height="10.33" transform="translate(249.04 -225.46) rotate(90)"/><rect class="cls-8" x="296.08" y="7.21" width="17.5" height="9.17" transform="translate(316.63 -293.04) rotate(90)"/><rect class="cls-8" x="320.33" y="6.96" width="17.5" height="9.67" transform="translate(340.88 -317.29) rotate(90)"/><rect class="cls-8" x="347.33" y="7.13" width="17.5" height="9.33" transform="translate(367.88 -344.29) rotate(90)"/></g><path class="cls-9" d="M361,11.79C361,6.42,358.29,3,354.37,3H189.29c-2.27,0-4.64,8.75-6.92,8.75S178.13,3,176,3H7.77C4.92,3,2,6.48,2,11.79c0,5,2.87,8.75,5.81,8.75H176c2.22,0,4.2-8.75,6.42-8.75s4.75,8.75,7,8.75h165C358,20.54,361,17,361,11.79Z"/></svg>