<svg id="Contigs" xmlns="http://www.w3.org/2000/svg" xmlns:xlink="http://www.w3.org/1999/xlink" viewBox="0 0 74.21 24.67"><defs><style>.cls-1,.cls-8{fill:none;}.cls-2{clip-path:url(#clip-path);}.cls-3{fill:#f1f2f2;}.cls-4{fill:#963231;}.cls-5{fill:#393939;}.cls-6{fill:#97989c;}.cls-7{fill:#c8d6f1;}.cls-8{stroke:#231f20;stroke-miterlimit:10;}</style><clipPath id="clip-path"><path class="cls-1" d="M71.46,12.58c0-5.37-2.88-8.75-3.62-8.75h-44c-1.39,0-2.42,8.75-3.75,8.75S17,3.83,15.71,3.83c-4.54,0-5.29-.25-8.25-.25-.54,0-4.33,3.69-4.33,9,0,5,3.77,8.5,4.33,8.5,3,0,3.71.25,8.25.25,1.32,0,3-8.75,4.42-8.75s2.58,8.75,4.08,8.75H67.83C68.53,21.33,71.46,17.75,71.46,12.58Z"/></clipPath></defs><title>split_tmp</title><g class="cls-2"><rect class="cls-3" x="20.44" y="-28.02" width="30.67" height="80.71" transform="translate(48.1 -23.44) rotate(90)"/><rect class="cls-4" x="11.21" y="8.33" width="17.5" height="8.5" transform="translate(32.54 -7.37) rotate(90)"/><rect class="cls-5" x="21.25" y="6.71" width="17.5" height="11.75" transform="translate(42.58 -17.42) rotate(90)"/><rect class="cls-6" x="33.38" y="6.33" width="17.5" height="12.5" transform="translate(54.71 -29.54) rotate(90)"/><rect class="cls-6" x="49.69" y="7.4" width="17.5" height="10.37" transform="translate(71.02 -45.85) rotate(90)"/><rect class="cls-7" x="0.67" y="6.29" width="17.5" height="12.58" transform="translate(22 3.17) rotate(90)"/></g><path class="cls-8" d="M71.67,12.58c0-5.37-2.88-8.75-3.62-8.75h-44c-1.39,0-2.42,8.75-3.75,8.75s-3.1-8.75-4.42-8.75c-4.54,0-5.29-.25-8.25-.25-.54,0-4.33,3.69-4.33,9,0,5,3.77,8.5,4.33,8.5,3,0,3.71.25,8.25.25,1.32,0,3-8.75,4.42-8.75s2.58,8.75,4.08,8.75H68C68.74,21.33,71.67,17.75,71.67,12.58Z"/></svg>