<svg id="Contigs" xmlns="http://www.w3.org/2000/svg" xmlns:xlink="http://www.w3.org/1999/xlink" viewBox="0 0 358.17 23.33"><defs><style>.cls-1,.cls-8{fill:none;}.cls-2{clip-path:url(#clip-path);}.cls-3{fill:#f1f2f2;}.cls-4{fill:#963231;}.cls-5{fill:#393939;}.cls-6{fill:#97989c;}.cls-7{fill:#d4d5d7;}.cls-8{stroke:#231f20;stroke-miterlimit:10;}</style><clipPath id="clip-path"><path class="cls-1" d="M355.37,11.46c0-5.38-2.62-8.75-6.47-8.75H143.5c-1.84,0-3.8,8.75-5.63,8.75-2,0-3.88-8.75-5.88-8.75H8.09c-2.81,0-5.72,3.44-5.72,8.75,0,5,2.83,8.75,5.72,8.75H132c2,0,3.87-8.75,5.88-8.75s3.87,8.75,5.75,8.75H348.86C352.51,20.21,355.37,16.63,355.37,11.46Z"/></clipPath></defs><title>split_tmp</title><g class="cls-2"><rect class="cls-3" x="166.21" y="-171.62" width="25.33" height="365" transform="translate(189.75 -168) rotate(90)"/><rect class="cls-4" x="129.06" y="5.65" width="17.5" height="11.63" transform="translate(149.27 -126.35) rotate(90)"/><rect class="cls-5" x="301.79" y="6.46" width="17.5" height="10" transform="translate(322 -299.08) rotate(90)"/><rect class="cls-5" x="322.46" y="3.96" width="17.5" height="15" transform="translate(342.67 -319.75) rotate(90)"/><rect class="cls-5" x="201" y="2.21" width="17.25" height="18.25" transform="translate(220.96 -198.29) rotate(90)"/><rect class="cls-5" x="110.12" y="4.96" width="17.5" height="13" transform="translate(130.33 -107.42) rotate(90)"/><rect class="cls-5" x="72.37" y="0.54" width="17.5" height="21.83" transform="translate(92.58 -69.67) rotate(90)"/><rect class="cls-6" x="20.12" y="3.71" width="17.5" height="15.5" transform="translate(40.33 -17.42) rotate(90)"/><rect class="cls-6" x="47.37" y="4.71" width="17.5" height="13.5" transform="translate(67.58 -44.67) rotate(90)"/><rect class="cls-6" x="93.58" y="1.17" width="17.25" height="20.33" transform="translate(113.54 -90.87) rotate(90)"/><rect class="cls-6" x="170.77" y="-0.15" width="17.25" height="22.96" transform="translate(190.73 -168.06) rotate(90)"/><rect class="cls-6" x="229.04" y="0.38" width="17.5" height="22.17" transform="translate(249.25 -226.33) rotate(90)"/><rect class="cls-6" x="265.87" y="-2.79" width="17.25" height="28.25" transform="translate(285.83 -263.17) rotate(90)"/><rect class="cls-7" x="-0.68" y="5.77" width="17.5" height="11.38" transform="translate(19.52 3.39) rotate(90)"/><rect class="cls-7" x="34.37" y="4.96" width="17.25" height="12.75" transform="translate(54.33 -31.67) rotate(90)"/><rect class="cls-7" x="143.5" y="2.71" width="17.25" height="17.25" transform="translate(163.46 -140.79) rotate(90)"/><rect class="cls-7" x="186.94" y="6.65" width="17.5" height="9.63" transform="translate(207.15 -184.23) rotate(90)"/><rect class="cls-7" x="292.75" y="7.17" width="17.25" height="8.33" transform="translate(312.71 -290.04) rotate(90)"/><rect class="cls-7" x="336.87" y="8.88" width="17.5" height="5.17" transform="translate(357.08 -334.17) rotate(90)"/></g><path class="cls-8" d="M355.58,11.46c0-5.38-2.62-8.75-6.47-8.75H143.71c-1.84,0-3.8,8.75-5.63,8.75-2,0-3.88-8.75-5.88-8.75H8.3c-2.81,0-5.72,3.44-5.72,8.75,0,5,2.83,8.75,5.72,8.75H132.21c2,0,3.87-8.75,5.88-8.75s3.87,8.75,5.75,8.75H349.07C352.72,20.21,355.58,16.63,355.58,11.46Z"/></svg>