<svg id="Contigs" xmlns="http://www.w3.org/2000/svg" xmlns:xlink="http://www.w3.org/1999/xlink" viewBox="0 0 96.88 23.67"><defs><style>.cls-1,.cls-7{fill:none;}.cls-2{clip-path:url(#clip-path);}.cls-3{fill:#f1f2f2;}.cls-4{fill:#963231;}.cls-5{fill:#97989c;}.cls-6{fill:#d4d5d7;}.cls-7{stroke:#231f20;stroke-miterlimit:10;}</style><clipPath id="clip-path"><path class="cls-1" d="M93.81,12.13c0-5.38-2.75-8.75-3.74-8.75H44.81c-1.06,0-2,8.75-3.08,8.75-1.23,0-2.53-8.75-3.75-8.75H7.56c-.72,0-4.75,3.44-4.75,8.75,0,5,4,8.75,4.75,8.75H38c1.24,0,2.5-8.75,3.75-8.75s2.22,8.75,3.33,8.75h45C91,20.88,93.81,17.29,93.81,12.13Z"/></clipPath></defs><title>split_tmp</title><g class="cls-2"><rect class="cls-3" x="30.6" y="-39" width="34" height="101.75" transform="translate(59.48 -35.73) rotate(90)"/><rect class="cls-4" x="32.77" y="8.58" width="17.5" height="7.08" transform="translate(53.65 -29.4) rotate(90)"/><rect class="cls-5" x="3.92" y="8.81" width="17.5" height="6.62" transform="translate(24.79 -0.54) rotate(90)"/><rect class="cls-5" x="15.98" y="8.04" width="17.5" height="8.17" transform="translate(36.85 -12.6) rotate(90)"/><rect class="cls-5" x="54.4" y="5.63" width="17.5" height="13" transform="translate(75.27 -51.02) rotate(90)"/><rect class="cls-5" x="71.44" y="5.5" width="18.17" height="12.58" transform="translate(92.31 -68.73) rotate(90)"/><rect class="cls-6" x="41.77" y="6" width="18.17" height="11.58" transform="translate(62.65 -39.06) rotate(90)"/></g><path class="cls-7" d="M94,12.13c0-5.38-2.75-8.75-3.74-8.75H45c-1.06,0-2,8.75-3.08,8.75-1.23,0-2.53-8.75-3.75-8.75H7.77C7,3.38,3,6.81,3,12.13c0,5,4,8.75,4.75,8.75H38.19c1.24,0,2.5-8.75,3.75-8.75s2.22,8.75,3.33,8.75h45C91.21,20.88,94,17.29,94,12.13Z"/></svg>