<svg id="Contigs" xmlns="http://www.w3.org/2000/svg" xmlns:xlink="http://www.w3.org/1999/xlink" viewBox="0 0 76.25 25.25"><defs><style>.cls-1,.cls-8{fill:none;}.cls-2{clip-path:url(#clip-path);}.cls-3{fill:#f1f2f2;}.cls-4{fill:#963231;}.cls-5{fill:#97989c;}.cls-6{fill:#c8d6f1;}.cls-7{fill:#d4d5d7;}.cls-8{stroke:#231f20;stroke-miterlimit:10;}</style><clipPath id="clip-path"><path class="cls-1" d="M73.21,12.67c0-5.37-3.22-8.75-4-8.75H25.88c-2.92,0-5.82,8.75-8.5,8.75-1.76,0-3.39-8.75-5-8.75-3.58,0-3.45-.08-5.92-.08C5.89,3.83,2,7.35,2,12.67c0,5,3.83,8.67,4.42,8.67,2.45,0,2.3.08,5.85.08,1.64,0,3.26-8.75,5.06-8.75,2.66,0,5.61,8.75,8.5,8.75H69.2C69.94,21.42,73.21,17.83,73.21,12.67Z"/></clipPath></defs><title>split_tmp</title><g class="cls-2"><rect class="cls-3" x="21.46" y="-29.17" width="29.33" height="83.5" transform="translate(48.71 -23.54) rotate(90)"/><rect class="cls-4" x="10.19" y="6.23" width="18" height="13.38" transform="translate(32.1 -6.27) rotate(90)"/><rect class="cls-5" x="35.81" y="4.85" width="18" height="16.13" transform="translate(57.73 -31.9) rotate(90)"/><rect class="cls-5" x="51.64" y="10.34" width="17.5" height="4.65" transform="translate(73.05 -47.72) rotate(90)"/><rect class="cls-6" x="-1.73" y="7.69" width="18" height="10.46" transform="translate(20.19 5.65) rotate(90)"/><rect class="cls-7" x="24.35" y="9.52" width="18" height="6.79" transform="translate(46.27 -20.44) rotate(90)"/></g><path class="cls-8" d="M73.42,12.67c0-5.37-3.22-8.75-4-8.75H26.08c-2.92,0-5.82,8.75-8.5,8.75-1.76,0-3.39-8.75-5-8.75-3.58,0-3.45-.08-5.92-.08-.57,0-4.42,3.52-4.42,8.83,0,5,3.83,8.67,4.42,8.67,2.45,0,2.3.08,5.85.08,1.64,0,3.26-8.75,5.06-8.75,2.66,0,5.61,8.75,8.5,8.75H69.41C70.14,21.42,73.42,17.83,73.42,12.67Z"/></svg>