<svg id="Contigs" xmlns="http://www.w3.org/2000/svg" xmlns:xlink="http://www.w3.org/1999/xlink" viewBox="0 0 294.17 23"><defs><style>.cls-1,.cls-9{fill:none;}.cls-2{clip-path:url(#clip-path);}.cls-3{fill:#f1f2f2;}.cls-4{fill:#963231;}.cls-5{fill:#c8d6f1;}.cls-6{fill:#393939;}.cls-7{fill:#97989c;}.cls-8{fill:#d4d5d7;}.cls-9{stroke:#231f20;stroke-miterlimit:10;}</style><clipPath id="clip-path"><path class="cls-1" d="M291.21,11.29c0-5.37-2.85-8.75-6-8.75H139.12c-1.44,0-2.47,8.75-3.92,8.75-1.83,0-4.08-8.75-5.92-8.75H8.87c-2.29,0-6,3.44-6,8.75,0,5,3.64,8.75,6,8.75H129.12c1.92,0,4.17-8.75,6.08-8.75,1.56,0,2.78,8.75,4.33,8.75H285.18C288.16,20,291.21,16.46,291.21,11.29Z"/></clipPath></defs><title>split_tmp</title><g class="cls-2"><rect class="cls-3" x="130.92" y="-141.58" width="30" height="305.25" transform="translate(156.96 -134.87) rotate(90)"/><rect class="cls-4" x="125.67" y="6.17" width="17.5" height="10.25" transform="translate(145.71 -123.12) rotate(90)"/><rect class="cls-5" x="134.98" y="7.1" width="17.5" height="8.37" transform="translate(155.02 -132.44) rotate(90)"/><rect class="cls-6" x="21.29" y="4.13" width="17.5" height="14.33" transform="translate(41.33 -18.75) rotate(90)"/><rect class="cls-6" x="208.87" y="6.38" width="17.5" height="9.83" transform="translate(228.92 -206.33) rotate(90)"/><rect class="cls-6" x="234.33" y="5.75" width="17.5" height="11.08" transform="translate(254.38 -231.79) rotate(90)"/><rect class="cls-7" x="252.71" y="2.54" width="17.5" height="17.5" transform="translate(272.75 -250.17) rotate(90)"/><rect class="cls-7" x="272" y="8.83" width="17.5" height="4.92" transform="translate(292.04 -269.46) rotate(90)"/><rect class="cls-7" x="159.58" y="-2.17" width="17.5" height="26.92" transform="translate(179.63 -157.04) rotate(90)"/><rect class="cls-7" x="102.96" y="-6.12" width="17.5" height="34.83" transform="translate(123 -100.42) rotate(90)"/><rect class="cls-7" x="75.79" y="7.54" width="17.5" height="7.5" transform="translate(95.83 -73.25) rotate(90)"/><rect class="cls-7" x="39.75" y="4.08" width="17.5" height="14.42" transform="translate(59.79 -37.21) rotate(90)"/><rect class="cls-7" x="54.29" y="7.79" width="17.5" height="7" transform="translate(74.33 -51.75) rotate(90)"/><rect class="cls-7" x="0.12" y="5.29" width="17.5" height="12" transform="translate(20.17 2.42) rotate(90)"/><rect class="cls-8" x="142.65" y="7.81" width="17.5" height="6.96" transform="translate(162.69 -140.1) rotate(90)"/><rect class="cls-8" x="176.75" y="7.58" width="17.5" height="7.42" transform="translate(196.79 -174.21) rotate(90)"/><rect class="cls-8" x="191.71" y="4.54" width="17.5" height="13.5" transform="translate(211.75 -189.17) rotate(90)"/><rect class="cls-8" x="222.37" y="4.88" width="17.5" height="12.83" transform="translate(242.42 -219.83) rotate(90)"/><rect class="cls-8" x="241.92" y="9.25" width="17.5" height="4.08" transform="translate(261.96 -239.37) rotate(90)"/><rect class="cls-8" x="265.5" y="7.25" width="17.5" height="8.08" transform="translate(285.54 -262.96) rotate(90)"/></g><path class="cls-9" d="M291.42,11.29c0-5.37-2.85-8.75-6-8.75H139.33c-1.44,0-2.47,8.75-3.92,8.75-1.83,0-4.08-8.75-5.92-8.75H9.08c-2.29,0-6,3.44-6,8.75,0,5,3.64,8.75,6,8.75H129.33c1.92,0,4.17-8.75,6.08-8.75,1.56,0,2.78,8.75,4.33,8.75H285.39C288.37,20,291.42,16.46,291.42,11.29Z"/></svg>