<svg id="Contigs" xmlns="http://www.w3.org/2000/svg" xmlns:xlink="http://www.w3.org/1999/xlink" viewBox="0 0 284.83 22.67"><defs><style>.cls-1,.cls-8{fill:none;}.cls-2{clip-path:url(#clip-path);}.cls-3{fill:#f1f2f2;}.cls-4{fill:#963231;}.cls-5{fill:#393939;}.cls-6{fill:#97989c;}.cls-7{fill:#d4d5d7;}.cls-8{stroke:#231f20;stroke-miterlimit:10;}</style><clipPath id="clip-path"><path class="cls-1" d="M281.67,11.29c0-5.37-3.3-8.75-6.34-8.75H81.83c-1.48,0-2.87,8.75-4.33,8.75s-3-8.75-4.42-8.75H8.29C6.07,2.54,2.67,6,2.67,11.29,2.67,16.29,6,20,8.29,20H73c1.44,0,3-8.75,4.5-8.75S80.27,20,81.75,20H275.29C278.17,20,281.67,16.46,281.67,11.29Z"/></clipPath></defs><title>split_tmp</title><g class="cls-2"><rect class="cls-3" x="127.33" y="-139.96" width="30" height="300.67" transform="translate(152.71 -131.96) rotate(90)"/><rect class="cls-4" x="68.67" y="6.96" width="17.5" height="8.67" transform="translate(88.71 -66.12) rotate(90)"/><rect class="cls-5" x="257.08" y="7.79" width="17.5" height="7" transform="translate(277.13 -254.54) rotate(90)"/><rect class="cls-5" x="237.46" y="6.92" width="17.5" height="8.75" transform="translate(257.5 -234.92) rotate(90)"/><rect class="cls-5" x="224" y="7.21" width="17.5" height="8.17" transform="translate(244.04 -221.46) rotate(90)"/><rect class="cls-5" x="190.92" y="4.96" width="17.5" height="12.67" transform="translate(210.96 -188.37) rotate(90)"/><rect class="cls-5" x="85.46" y="5.5" width="17.5" height="11.58" transform="translate(105.5 -82.92) rotate(90)"/><rect class="cls-5" x="41.5" y="5.88" width="17.5" height="10.83" transform="translate(61.54 -38.96) rotate(90)"/><rect class="cls-6" x="19.17" y="2.54" width="17.5" height="17.5" transform="translate(39.21 -16.62) rotate(90)"/><rect class="cls-6" x="59.08" y="6.13" width="17.5" height="10.33" transform="translate(79.13 -56.54) rotate(90)"/><rect class="cls-6" x="105.17" y="2.54" width="17.5" height="17.5" transform="translate(125.21 -102.62) rotate(90)"/><rect class="cls-6" x="137.27" y="-2.69" width="17.5" height="27.96" transform="translate(157.31 -134.73) rotate(90)"/><rect class="cls-6" x="173.04" y="-0.25" width="17.5" height="23.08" transform="translate(193.08 -170.5) rotate(90)"/><rect class="cls-6" x="247.71" y="5.42" width="17.5" height="11.75" transform="translate(267.75 -245.17) rotate(90)"/><rect class="cls-7" x="-1.67" y="6.38" width="17.5" height="9.83" transform="translate(18.38 4.21) rotate(90)"/><rect class="cls-7" x="118.6" y="6.6" width="17.5" height="9.37" transform="translate(138.65 -116.06) rotate(90)"/><rect class="cls-7" x="206" y="2.54" width="17.5" height="17.5" transform="translate(226.04 -203.46) rotate(90)"/><rect class="cls-7" x="269.98" y="7.85" width="17.5" height="6.88" transform="translate(290.02 -267.44) rotate(90)"/></g><path class="cls-8" d="M281.88,11.29c0-5.37-3.3-8.75-6.34-8.75H82c-1.48,0-2.87,8.75-4.33,8.75s-3-8.75-4.42-8.75H8.5C6.28,2.54,2.87,6,2.87,11.29c0,5,3.34,8.75,5.63,8.75H73.21c1.44,0,3-8.75,4.5-8.75S80.48,20,82,20H275.5C278.38,20,281.88,16.46,281.88,11.29Z"/></svg>