<svg id="Contigs" xmlns="http://www.w3.org/2000/svg" xmlns:xlink="http://www.w3.org/1999/xlink" viewBox="0 0 268.83 24.33"><defs><style>.cls-1,.cls-8{fill:none;}.cls-2{clip-path:url(#clip-path);}.cls-3{fill:#f1f2f2;}.cls-4{fill:#963231;}.cls-5{fill:#393939;}.cls-6{fill:#97989c;}.cls-7{fill:#d4d5d7;}.cls-8{stroke:#231f20;stroke-miterlimit:10;}</style><clipPath id="clip-path"><path class="cls-1" d="M265.83,11.95c0-5.37-2.62-8.75-5.48-8.75H78.92c-1.68,0-3.18,8.75-4.83,8.75S70.57,3.2,68.92,3.2c-24.67,0-45.73-.31-60.75-.31-2.09,0-5,3.75-5,9.06,0,5,2.85,8.44,5,8.44,15,0,36,.31,60.67.31,1.68,0,3.54-8.75,5.25-8.75s3.16,8.75,4.83,8.75h181.4C263,20.7,265.83,17.11,265.83,11.95Z"/></clipPath></defs><title>split_tmp</title><g class="cls-2"><rect class="cls-3" x="121" y="-126.64" width="28.67" height="275.67" transform="translate(146.53 -124.14) rotate(90)"/><rect class="cls-4" x="65.17" y="6.95" width="17.5" height="10" transform="translate(85.86 -61.97) rotate(90)"/><rect class="cls-5" x="29.58" y="4.28" width="18.33" height="16.17" transform="translate(51.11 -26.39) rotate(90)"/><rect class="cls-5" x="122.48" y="5.51" width="18.33" height="13.71" transform="translate(144.01 -119.28) rotate(90)"/><rect class="cls-5" x="145.5" y="3.2" width="18.33" height="18.33" transform="translate(167.03 -142.3) rotate(90)"/><rect class="cls-5" x="167.75" y="7.61" width="17.5" height="8.67" transform="translate(188.45 -164.55) rotate(90)"/><rect class="cls-5" x="181.96" y="10.41" width="17.5" height="3.08" transform="translate(202.66 -178.76) rotate(90)"/><rect class="cls-5" x="232.5" y="6.2" width="18.33" height="12.33" transform="translate(254.03 -229.3) rotate(90)"/><rect class="cls-6" x="98.08" y="-6.01" width="17.5" height="35.92" transform="translate(118.78 -94.89) rotate(90)"/><rect class="cls-6" x="206.33" y="8.78" width="17.5" height="6.33" transform="translate(227.03 -203.14) rotate(90)"/><rect class="cls-6" x="12.29" y="6.82" width="17.5" height="10.25" transform="translate(32.99 -9.09) rotate(90)"/><rect class="cls-7" x="1.1" y="5.26" width="16.88" height="12.75" transform="translate(21.18 2.09) rotate(90)"/><rect class="cls-7" x="52.33" y="4.2" width="17.5" height="15.5" transform="translate(73.03 -49.14) rotate(90)"/><rect class="cls-7" x="159.25" y="7.78" width="17.5" height="8.33" transform="translate(179.95 -156.05) rotate(90)"/><rect class="cls-7" x="190.25" y="5.2" width="17.5" height="13.5" transform="translate(210.95 -187.05) rotate(90)"/><rect class="cls-7" x="216.08" y="5.36" width="17.5" height="13.17" transform="translate(236.78 -212.89) rotate(90)"/><rect class="cls-7" x="251.58" y="6.45" width="17.5" height="11" transform="translate(272.28 -248.39) rotate(90)"/></g><path class="cls-8" d="M266,11.95c0-5.37-2.62-8.75-5.48-8.75H79.12c-1.68,0-3.18,8.75-4.83,8.75S70.78,3.2,69.12,3.2c-24.67,0-45.73-.31-60.75-.31-2.09,0-5,3.75-5,9.06,0,5,2.85,8.44,5,8.44,15,0,36,.31,60.67.31,1.68,0,3.54-8.75,5.25-8.75s3.16,8.75,4.83,8.75h181.4C263.24,20.7,266,17.11,266,11.95Z"/></svg>