<svg id="Contigs" xmlns="http://www.w3.org/2000/svg" xmlns:xlink="http://www.w3.org/1999/xlink" viewBox="0 0 253.17 23"><defs><style>.cls-1,.cls-8{fill:none;}.cls-2{clip-path:url(#clip-path);}.cls-3{fill:#f1f2f2;}.cls-4{fill:#963231;}.cls-5{fill:#393939;}.cls-6{fill:#97989c;}.cls-7{fill:#d4d5d7;}.cls-8{stroke:#231f20;stroke-miterlimit:10;}</style><clipPath id="clip-path"><path class="cls-1" d="M250.17,11.63c0-5.38-2.76-8.75-5.47-8.75H95.25c-1.64,0-3.37,8.75-5,8.75-2.29,0-4.49-8.75-6.75-8.75H7.17c-2,0-5.5,3.44-5.5,8.75,0,5,3.47,8.75,5.5,8.75H83.5c2.26,0,4.46-8.75,6.75-8.75,1.66,0,3.41,8.75,5.08,8.75H244.67C247.23,20.38,250.17,16.79,250.17,11.63Z"/></clipPath></defs><title>split_tmp</title><g class="cls-2"><rect class="cls-3" x="102.92" y="-123.54" width="38" height="268.5" transform="translate(132.62 -111.21) rotate(90)"/><rect class="cls-4" x="80.67" y="5.71" width="17.5" height="11.83" transform="translate(101.04 -77.79) rotate(90)"/><rect class="cls-5" x="170.52" y="6.06" width="17.5" height="11.13" transform="translate(190.9 -167.65) rotate(90)"/><rect class="cls-5" x="134.92" y="2.88" width="18.75" height="18.75" transform="translate(156.54 -132.04) rotate(90)"/><rect class="cls-5" x="91.13" y="7.08" width="17.5" height="9.08" transform="translate(111.5 -88.25) rotate(90)"/><rect class="cls-5" x="65.79" y="3.92" width="18.75" height="16.67" transform="translate(87.42 -62.92) rotate(90)"/><rect class="cls-6" x="25.64" y="1.41" width="17.5" height="20.44" transform="translate(46.01 -22.76) rotate(90)"/><rect class="cls-6" x="112.17" y="2.88" width="17.5" height="17.5" transform="translate(132.54 -109.29) rotate(90)"/><rect class="cls-6" x="161.06" y="7.73" width="17.5" height="7.8" transform="translate(181.43 -158.18) rotate(90)"/><rect class="cls-6" x="182.71" y="5" width="17.5" height="13.25" transform="translate(203.08 -179.83) rotate(90)"/><rect class="cls-6" x="207.21" y="-0.25" width="17.5" height="23.75" transform="translate(227.58 -204.33) rotate(90)"/><rect class="cls-7" x="4.17" y="0.38" width="17.5" height="22.5" transform="translate(24.54 -1.29) rotate(90)"/><rect class="cls-7" x="46.97" y="0.51" width="17.5" height="22.23" transform="translate(67.34 -44.09) rotate(90)"/><rect class="cls-7" x="225.92" y="4.79" width="17.5" height="13.67" transform="translate(246.29 -223.04) rotate(90)"/></g><path class="cls-8" d="M250.37,11.63c0-5.38-2.76-8.75-5.47-8.75H95.46c-1.64,0-3.37,8.75-5,8.75-2.29,0-4.49-8.75-6.75-8.75H7.37c-2,0-5.5,3.44-5.5,8.75,0,5,3.47,8.75,5.5,8.75H83.71c2.26,0,4.46-8.75,6.75-8.75,1.66,0,3.41,8.75,5.08,8.75H244.87C247.44,20.38,250.37,16.79,250.37,11.63Z"/></svg>