<svg id="Contigs" xmlns="http://www.w3.org/2000/svg" xmlns:xlink="http://www.w3.org/1999/xlink" viewBox="0 0 235.83 24"><defs><style>.cls-1,.cls-8{fill:none;}.cls-2{clip-path:url(#clip-path);}.cls-3{fill:#f1f2f2;}.cls-4{fill:#963231;}.cls-5{fill:#393939;}.cls-6{fill:#97989c;}.cls-7{fill:#d4d5d7;}.cls-8{stroke:#231f20;stroke-miterlimit:10;}</style><clipPath id="clip-path"><path class="cls-1" d="M232.88,12c0-5.38-2.35-8.75-4.86-8.75H92.87C91.2,3.21,89.45,12,87.79,12S84.59,3.21,83,3.21H8C6.21,3.21,2.37,6.65,2.37,12c0,5,3.78,8.75,5.67,8.75H83c1.61,0,3.22-8.75,4.83-8.75,1.8,0,3.61,8.75,5.42,8.75H228C230.37,20.71,232.88,17.13,232.88,12Z"/></clipPath></defs><title>split_tmp</title><g class="cls-2"><rect class="cls-3" x="100.21" y="-116.62" width="31.33" height="256" transform="translate(127.25 -104.5) rotate(90)"/><rect class="cls-4" x="79.33" y="6.83" width="17.5" height="10.25" transform="translate(100.04 -76.12) rotate(90)"/><rect class="cls-5" x="112.02" y="5.73" width="17.5" height="12.46" transform="translate(132.73 -108.81) rotate(90)"/><rect class="cls-5" x="7.42" y="7" width="17.5" height="9.92" transform="translate(28.13 -4.21) rotate(90)"/><rect class="cls-5" x="18.56" y="9.9" width="17.5" height="4.12" transform="translate(39.27 -15.35) rotate(90)"/><rect class="cls-6" x="14.44" y="9.9" width="17.5" height="4.12" transform="translate(35.15 -11.23) rotate(90)"/><rect class="cls-6" x="56.67" y="-5.58" width="17.5" height="35.08" transform="translate(77.37 -53.46) rotate(90)"/><rect class="cls-6" x="90.92" y="5.5" width="17.5" height="12.92" transform="translate(111.63 -87.71) rotate(90)"/><rect class="cls-6" x="127" y="3.21" width="17.54" height="17.54" transform="translate(147.75 -123.79) rotate(90)"/><rect class="cls-6" x="163.62" y="-2.46" width="17.5" height="28.83" transform="translate(184.33 -160.42) rotate(90)"/><rect class="cls-6" x="188.85" y="8.35" width="17.5" height="7.21" transform="translate(209.56 -185.65) rotate(90)"/><rect class="cls-6" x="204.12" y="7.79" width="17.5" height="8.33" transform="translate(224.83 -200.92) rotate(90)"/><rect class="cls-7" x="-1.96" y="7.54" width="17.5" height="8.83" transform="translate(18.75 5.17) rotate(90)"/><rect class="cls-7" x="33.12" y="5.96" width="17.5" height="12" transform="translate(53.83 -29.92) rotate(90)"/><rect class="cls-7" x="142.5" y="5.25" width="17.5" height="13.42" transform="translate(163.21 -139.29) rotate(90)"/><rect class="cls-7" x="181.65" y="8.35" width="17.5" height="7.21" transform="translate(202.35 -178.44) rotate(90)"/><rect class="cls-7" x="219.25" y="7.08" width="17.5" height="9.75" transform="translate(239.96 -216.04) rotate(90)"/></g><path class="cls-8" d="M233.08,12c0-5.38-2.35-8.75-4.86-8.75H93.08C91.41,3.21,89.66,12,88,12s-3.2-8.75-4.83-8.75H8.25C6.42,3.21,2.58,6.65,2.58,12c0,5,3.78,8.75,5.67,8.75H83.17C84.77,20.71,86.38,12,88,12c1.8,0,3.61,8.75,5.42,8.75H228.19C230.58,20.71,233.08,17.13,233.08,12Z"/></svg>