<svg id="Contigs" xmlns="http://www.w3.org/2000/svg" xmlns:xlink="http://www.w3.org/1999/xlink" viewBox="0 0 219.5 23"><defs><style>.cls-1,.cls-8{fill:none;}.cls-2{clip-path:url(#clip-path);}.cls-3{fill:#f1f2f2;}.cls-4{fill:#963231;}.cls-5{fill:#393939;}.cls-6{fill:#97989c;}.cls-7{fill:#d4d5d7;}.cls-8{stroke:#231f20;stroke-miterlimit:10;}</style><clipPath id="clip-path"><path class="cls-1" d="M216.5,11.25c0-5.38-2.49-8.67-4.82-8.67C196.9,2.58,131.54,2.5,75,2.5c-1.79,0-3.23,8.75-5,8.75-1.57,0-3.45-8.75-5-8.75H8.5C6.8,2.5,3,5.94,3,11.25,3,16.25,6.75,20,8.5,20H64.75c1.74,0,3.49-8.75,5.25-8.75S73.38,20,75.08,20c56.47,0,121.69.08,136.57.08C213.86,20.08,216.5,16.42,216.5,11.25Z"/></clipPath></defs><title>split_tmp</title><g class="cls-2"><rect class="cls-3" x="95.15" y="-103.35" width="25.33" height="229.38" transform="translate(119.15 -96.48) rotate(90)"/><rect class="cls-4" x="61.29" y="6.21" width="17.5" height="10.08" transform="translate(81.29 -58.79) rotate(90)"/><rect class="cls-5" x="18.62" y="7.13" width="17.5" height="8.25" transform="translate(38.62 -16.12) rotate(90)"/><rect class="cls-5" x="105.56" y="7.56" width="17.5" height="7.38" transform="translate(125.56 -103.06) rotate(90)"/><rect class="cls-5" x="125.58" y="7.08" width="17.5" height="8.33" transform="translate(145.58 -123.08) rotate(90)"/><rect class="cls-5" x="161.67" y="7.5" width="17.5" height="7.5" transform="translate(181.67 -159.17) rotate(90)"/><rect class="cls-6" x="-2.27" y="5.48" width="17.5" height="11.53" transform="translate(17.73 4.77) rotate(90)"/><rect class="cls-6" x="43.75" y="4.75" width="17.5" height="13" transform="translate(63.75 -41.25) rotate(90)"/><rect class="cls-6" x="84.06" y="-6.56" width="17.5" height="35.63" transform="translate(104.06 -81.56) rotate(90)"/><rect class="cls-6" x="115.33" y="5.17" width="17.5" height="12.17" transform="translate(135.33 -112.83) rotate(90)"/><rect class="cls-6" x="153.48" y="6.81" width="17.5" height="8.88" transform="translate(173.48 -150.98) rotate(90)"/><rect class="cls-6" x="169.48" y="7.19" width="17.5" height="8.13" transform="translate(189.48 -166.98) rotate(90)"/><rect class="cls-6" x="195.96" y="8.79" width="17.5" height="4.92" transform="translate(215.96 -193.46) rotate(90)"/><rect class="cls-7" x="30" y="4" width="17.5" height="14.5" transform="translate(50 -27.5) rotate(90)"/><rect class="cls-7" x="53.13" y="8.37" width="17.5" height="5.75" transform="translate(73.13 -50.63) rotate(90)"/><rect class="cls-7" x="143.4" y="5.6" width="17.5" height="11.29" transform="translate(163.4 -140.9) rotate(90)"/><rect class="cls-7" x="206.04" y="9.04" width="17.5" height="4.42" transform="translate(226.04 -203.54) rotate(90)"/><rect class="cls-7" x="183.37" y="6.88" width="17.5" height="8.75" transform="translate(203.37 -180.87) rotate(90)"/><rect class="cls-7" x="195.5" y="7.67" width="17.5" height="7.17" transform="translate(215.5 -193) rotate(90)"/></g><path class="cls-8" d="M216.71,11.25c0-5.38-2.49-8.67-4.82-8.67-14.78,0-80.14-.08-136.68-.08-1.79,0-3.23,8.75-5,8.75-1.57,0-3.45-8.75-5-8.75H8.71c-1.7,0-5.5,3.44-5.5,8.75,0,5,3.75,8.75,5.5,8.75H65c1.74,0,3.49-8.75,5.25-8.75S73.59,20,75.29,20c56.47,0,121.69.08,136.57.08C214.07,20.08,216.71,16.42,216.71,11.25Z"/></svg>