<svg id="Contigs" xmlns="http://www.w3.org/2000/svg" xmlns:xlink="http://www.w3.org/1999/xlink" viewBox="0 0 210.5 24.33"><defs><style>.cls-1,.cls-9{fill:none;}.cls-2{clip-path:url(#clip-path);}.cls-3{fill:#f1f2f2;}.cls-4{fill:#963231;}.cls-5{fill:#c8d6f1;}.cls-6{fill:#393939;}.cls-7{fill:#97989c;}.cls-8{fill:#d4d5d7;}.cls-9{stroke:#231f20;stroke-miterlimit:10;}</style><clipPath id="clip-path"><path class="cls-1" d="M207.85,11.75C207.85,6.38,205.27,3,203,3H93c-4.55,0-8.84,8.75-13.33,8.75C76.38,11.75,72.85,3,69.6,3,44.14,3,22.79,2.75,8,2.75c-1.63,0-5.17,3.69-5.17,9,0,5,3.49,8.5,5.17,8.5,14.79,0,36.17.25,61.67.25,3.19,0,6.75-8.75,10-8.75,4.55,0,8.81,8.75,13.42,8.75H203C205.13,20.5,207.85,16.92,207.85,11.75Z"/></clipPath></defs><title>split_tmp</title><g class="cls-2"><rect class="cls-3" x="89.65" y="-97.37" width="30.67" height="217.75" transform="translate(116.48 -93.48) rotate(90)"/><rect class="cls-4" x="72.37" y="0.23" width="17.46" height="23" transform="translate(92.84 -69.37) rotate(90)"/><rect class="cls-5" x="90.62" y="5.01" width="17.48" height="13.5" transform="translate(111.12 -87.59) rotate(90)"/><rect class="cls-6" x="146.48" y="8.04" width="17.5" height="7.42" transform="translate(166.98 -143.48) rotate(90)"/><rect class="cls-6" x="34.17" y="1.69" width="17.5" height="20.13" transform="translate(54.67 -31.17) rotate(90)"/><rect class="cls-7" x="11.69" y="7.67" width="17.5" height="8.17" transform="translate(32.19 -8.69) rotate(90)"/><rect class="cls-7" x="111.5" y="-2.39" width="17.46" height="28.25" transform="translate(131.96 -108.5) rotate(90)"/><rect class="cls-7" x="168.74" y="6.85" width="17.46" height="9.77" transform="translate(189.2 -165.74) rotate(90)"/><rect class="cls-8" x="0.88" y="4.99" width="17.44" height="13.5" transform="translate(21.35 2.14) rotate(90)"/><rect class="cls-8" x="19.94" y="7.58" width="17.5" height="8.33" transform="translate(40.44 -16.94) rotate(90)"/><rect class="cls-8" x="52.6" y="6.75" width="17.5" height="10" transform="translate(73.1 -49.6) rotate(90)"/><rect class="cls-8" x="134.35" y="3" width="17.17" height="17.17" transform="translate(154.52 -131.35) rotate(90)"/><rect class="cls-8" x="155.69" y="6.27" width="17.14" height="10.65" transform="translate(175.86 -152.66) rotate(90)"/><rect class="cls-8" x="188.37" y="0.18" width="17.14" height="22.83" transform="translate(208.53 -185.34) rotate(90)"/></g><path class="cls-9" d="M208.06,11.75c0-5.38-2.58-8.75-4.82-8.75h-110c-4.55,0-8.84,8.75-13.33,8.75C76.59,11.75,73.06,3,69.81,3,44.35,3,23,2.75,8.23,2.75c-1.63,0-5.17,3.69-5.17,9,0,5,3.49,8.5,5.17,8.5,14.79,0,36.17.25,61.67.25,3.19,0,6.75-8.75,10-8.75,4.55,0,8.81,8.75,13.42,8.75h109.9C205.33,20.5,208.06,16.92,208.06,11.75Z"/></svg>