<svg id="Contigs" xmlns="http://www.w3.org/2000/svg" xmlns:xlink="http://www.w3.org/1999/xlink" viewBox="0 0 231.25 25.5"><defs><style>.cls-1,.cls-8{fill:none;}.cls-2{clip-path:url(#clip-path);}.cls-3{fill:#f1f2f2;}.cls-4{fill:#963231;}.cls-5{fill:#393939;}.cls-6{fill:#97989c;}.cls-7{fill:#d4d5d7;}.cls-8{stroke:#231f20;stroke-miterlimit:10;}</style><clipPath id="clip-path"><path class="cls-1" d="M228.67,12.73c0-5.37-2.54-8.75-5-8.75H98.08c-2.55,0-4.93,8.75-7.46,8.75-2,0-4.17-8.75-6.17-8.75H7.17c-1.8,0-4.33,3.44-4.33,8.75,0,5,2.49,8.75,4.33,8.75H84.46c2,0,4.2-8.75,6.17-8.75,2.57,0,4.87,8.75,7.46,8.75H223.64C226,21.48,228.67,17.9,228.67,12.73Z"/></clipPath></defs><title>split_tmp</title><g class="cls-2"><rect class="cls-3" x="97.67" y="-104.52" width="34.67" height="236.67" transform="translate(128.81 -101.19) rotate(90)"/><rect class="cls-4" x="82.52" y="5.92" width="17.5" height="13.62" transform="translate(104 -78.54) rotate(90)"/><rect class="cls-5" x="40.21" y="3.98" width="17.5" height="17.5" transform="translate(61.69 -36.23) rotate(90)"/><rect class="cls-5" x="116.71" y="0.98" width="17.5" height="23.5" transform="translate(138.19 -112.73) rotate(90)"/><rect class="cls-5" x="176.77" y="6.04" width="17.5" height="13.38" transform="translate(198.25 -172.79) rotate(90)"/><rect class="cls-5" x="204.77" y="9.67" width="17.5" height="6.13" transform="translate(226.25 -200.79) rotate(90)"/><rect class="cls-6" x="1.46" y="10.85" width="17.5" height="3.75" transform="translate(22.94 2.52) rotate(90)"/><rect class="cls-6" x="16.96" y="3.98" width="17.5" height="17.5" transform="translate(38.44 -12.98) rotate(90)"/><rect class="cls-6" x="59.83" y="8.98" width="17.5" height="7.5" transform="translate(81.31 -55.85) rotate(90)"/><rect class="cls-6" x="101.83" y="9.6" width="17.5" height="6.25" transform="translate(123.31 -97.85) rotate(90)"/><rect class="cls-6" x="133.02" y="8.17" width="17.5" height="9.13" transform="translate(154.5 -129.04) rotate(90)"/><rect class="cls-6" x="159.44" y="8" width="17.5" height="9.46" transform="translate(180.92 -155.46) rotate(90)"/><rect class="cls-6" x="197.96" y="8.98" width="17.5" height="7.5" transform="translate(219.44 -193.98) rotate(90)"/><rect class="cls-7" x="186.35" y="9.83" width="17.5" height="5.79" transform="translate(207.83 -182.37) rotate(90)"/><rect class="cls-7" x="141.75" y="8.56" width="17.5" height="8.33" transform="translate(163.23 -137.77) rotate(90)"/><rect class="cls-7" x="91.79" y="10.27" width="17.5" height="4.92" transform="translate(113.27 -87.81) rotate(90)"/><rect class="cls-7" x="69.83" y="9.15" width="17.5" height="7.17" transform="translate(91.31 -65.85) rotate(90)"/><rect class="cls-7" x="-3.17" y="9.98" width="17.5" height="5.5" transform="translate(18.31 7.15) rotate(90)"/></g><path class="cls-8" d="M228.88,12.73c0-5.37-2.54-8.75-5-8.75H98.29c-2.55,0-4.93,8.75-7.46,8.75-2,0-4.17-8.75-6.17-8.75H7.37C5.58,4,3,7.42,3,12.73c0,5,2.49,8.75,4.33,8.75H84.67c2,0,4.2-8.75,6.17-8.75,2.57,0,4.87,8.75,7.46,8.75H223.85C226.18,21.48,228.88,17.9,228.88,12.73Z"/></svg>