<svg id="Contigs" xmlns="http://www.w3.org/2000/svg" xmlns:xlink="http://www.w3.org/1999/xlink" viewBox="0 0 89 23.5"><defs><style>.cls-1,.cls-8{fill:none;}.cls-2{clip-path:url(#clip-path);}.cls-3{fill:#f1f2f2;}.cls-4{fill:#963231;}.cls-5{fill:#c8d6f1;}.cls-6{fill:#97989c;}.cls-7{fill:#d4d5d7;}.cls-8{stroke:#231f20;stroke-miterlimit:10;}</style><clipPath id="clip-path"><path class="cls-1" d="M86,11.67c0-5.37-3.21-8.83-4.12-8.83-6.56,0-36.6.08-60,.08-.9,0-1.5,8.75-2.38,8.75s-2-8.75-2.79-8.75h-10c-.66,0-4,3.44-4,8.75,0,5,3.28,8.75,4,8.75h9.79c.84,0,2.08-8.75,3-8.75s1.44,8.75,2.37,8.75c23.35,0,53.35-.08,60-.08C82.69,20.33,86,16.83,86,11.67Z"/></clipPath></defs><title>split_tmp</title><g class="cls-2"><rect class="cls-3" x="29.23" y="-36.48" width="26.67" height="96.13" transform="translate(54.15 -30.98) rotate(90)"/><rect class="cls-4" x="10.54" y="9.08" width="17.5" height="5.17" transform="translate(30.96 -7.62) rotate(90)"/><rect class="cls-5" x="55.17" y="-10.37" width="17.5" height="44.08" transform="translate(75.58 -52.25) rotate(90)"/><rect class="cls-6" x="-3.98" y="9.69" width="17.5" height="3.96" transform="translate(16.44 6.9) rotate(90)"/><rect class="cls-6" x="16.56" y="8.23" width="17.5" height="6.88" transform="translate(36.98 -13.65) rotate(90)"/><rect class="cls-6" x="26.57" y="8.28" width="17.5" height="6.77" transform="translate(46.99 -23.66) rotate(90)"/><rect class="cls-7" x="2.9" y="6.77" width="17.5" height="9.79" transform="translate(23.31 0.02) rotate(90)"/><rect class="cls-7" x="21.59" y="10.07" width="17.5" height="3.19" transform="translate(42.01 -18.68) rotate(90)"/><rect class="cls-7" x="31.5" y="10.04" width="17.5" height="3.25" transform="translate(51.92 -28.58) rotate(90)"/></g><path class="cls-8" d="M86.17,11.67c0-5.37-3.21-8.83-4.12-8.83-6.56,0-36.6.08-60,.08-.9,0-1.5,8.75-2.38,8.75s-2-8.75-2.79-8.75H7c-.66,0-4,3.44-4,8.75,0,5,3.28,8.75,4,8.75h9.79c.84,0,2.08-8.75,3-8.75s1.44,8.75,2.37,8.75c23.35,0,53.35-.08,60-.08C82.9,20.33,86.17,16.83,86.17,11.67Z"/></svg>